<svg width="97" height="110" viewBox="0 0 97 110" fill="none" xmlns="http://www.w3.org/2000/svg">
<path d="M6.73249 65.528C12.7324 64.0497 13.914 70.906 13.8445 72.473C18.954 62.2071 20.3672 51.3914 40.345 41.8106C42.7612 40.652 44.3541 36.057 45.3125 36.0995C46.2709 36.142 51.5085 20.4116 53.2392 18.831C54.9661 17.2503 57.7143 5.5518 60.1245 3.34817C62.5812 1.10202 64.4207 9.39677 65.122 10.9922C71.1249 10.493 72.8625 0.0172963 74.7676 0.101853C75.6563 0.141295 77.2049 11.1447 76.1433 12.1152C79.4069 13.1498 84.123 18.6995 84.0554 20.222C83.9878 21.7446 84.7948 23.6238 85.7474 23.6661C86.7 23.7084 95.8429 27.7293 96.2793 28.6481C97.3278 30.856 94.5722 33.6297 93.9611 35.0293C91.8383 39.8935 83.5498 38.8259 82.2881 39.9775C81.0265 41.1292 76.3093 50.3347 76.6783 51.6809C78.8693 59.6617 73.9997 66.1835 73.9321 67.7061C73.8645 69.2286 66.9019 72.905 66.8793 85.4766C66.8754 88.1437 65.8914 89.5965 67.853 92.8664C68.2216 93.4798 73.3849 94.8953 74.7533 98.6371C75.2394 99.9671 71.4524 100.235 69.9713 100.169C68.7904 101.251 64.2592 100.54 62.8984 97.2813C61.6358 94.2595 61.2308 90.6225 60.3981 89.7132C59.5655 88.804 60.0547 81.7601 60.0895 80.9766C59.4971 81.5163 55.7507 81.3501 54.5233 82.4741C62.3087 86.0472 59.2713 89.576 56.7447 89.4638C55.4708 90.6285 52.0902 89.1274 51.4648 88.4444C51.2639 92.9714 50.4587 95.3781 50.4162 96.3357C50.3737 97.2934 51.7498 101.299 52.2114 101.126C53.4524 100.657 63.5384 108.475 52.6924 108.953C49.7165 110.004 46.5372 106.98 45.6135 104.235C44.6858 101.49 43.7348 98.3517 43.1094 97.6688C42.4841 96.9858 43.0122 92.9968 41.8872 91.7702C40.7642 90.5418 41.1782 88.0751 41.2285 86.9434C40.4095 87.6921 36.4545 92.2269 34.6249 92.1457C32.7952 92.0645 27.9591 94.8156 27.1769 94.7809C28.9872 95.2974 38.3679 97.3711 36.3674 103.107C35.7602 104.854 32.6938 104.185 32.1962 103.639C29.9794 104.413 28.6395 103.133 27.6403 102.042C26.6412 100.95 19.3729 99.4938 18.457 98.4937C17.5412 97.4935 14.3865 90.8559 16.7078 88.7336C13.8363 85.5958 5.79356 84.8473 4.71116 83.6652C3.62876 82.4832 -4.19351 62.2059 5.48389 59.8227L6.73249 65.528Z" fill="#E50013"/>
</svg>
