<svg width="65" height="70" viewBox="0 0 65 70" fill="none" xmlns="http://www.w3.org/2000/svg">
<path d="M18.8292 56.0615C21.6359 55.8536 22.201 54.153 22.6342 52.1689C26.0625 36.0504 31.544 29.6634 32.7119 28.6997C34.1811 27.5281 29.3966 28.6997 29.1517 20.6688C28.9068 12.6379 22.8226 5.3817 27.0985 5.75962C31.3368 6.13755 38.7961 9.55777 38.7961 9.55777C38.7961 9.55777 40.9058 5.98638 49.1186 7.63035C49.1186 7.63035 55.9563 1.18672 56.1258 0.978864C56.2765 0.771005 58.3674 12.241 57.0112 14.4519C55.6926 16.6439 60.4018 20.0263 55.3347 28.1328C54.0538 30.2114 58.5181 29.8335 57.9342 39.3194C57.8588 40.5099 55.3724 51.4319 62.0782 59.3495C62.0782 59.3495 65.563 61.9193 64.2633 63.9412C63.9619 64.4326 61.5696 66.0954 57.8965 65.0939C54.8449 64.2436 52.6222 62.3918 52.6222 62.3918C50.3995 61.4091 48.4216 63.1098 49.2316 64.0546C49.2316 64.0546 51.0399 70.3471 43.1474 69.4967C36.9501 68.8165 41.1507 64.3192 39.9263 64.2436C35.462 63.979 35.2925 64.0735 35.2925 64.0735C35.6315 65.4341 36.7806 65.9632 34.0869 66.9458C33.9174 67.0024 28.7185 68.1551 26.8913 67.078C25.0265 66.0198 22.3517 63.6956 18.3771 63.0153C14.8547 62.4107 10.3527 57.7622 9.24135 52.9058C6.6984 41.7759 0.651827 44.1946 0.934377 40.5855C1.19809 37.3353 10.4092 39.6973 13.4231 46.2354C14.9112 49.4856 15.8154 56.2694 18.8292 56.0426" fill="#E50013"/>
</svg>
