<svg width="51" height="64" viewBox="0 0 51 64" fill="none" xmlns="http://www.w3.org/2000/svg">
<path d="M17.7959 34.7148C18.283 34.7148 18.7558 34.8151 19.1855 34.9941C19.6296 35.1731 20.0314 35.4456 20.3682 35.7822H20.375C20.7042 36.119 20.977 36.5198 21.1631 36.9639C21.3422 37.4008 21.4424 37.8664 21.4424 38.3535C21.4424 38.8406 21.3421 39.3134 21.1631 39.7432C20.9769 40.1945 20.7043 40.589 20.375 40.9258L20.3682 40.9326C20.0315 41.2692 19.6301 41.5344 19.1934 41.7207H19.1855C18.7558 41.8996 18.283 42 17.7959 42C17.3088 42 16.8432 41.8997 16.4063 41.7207C15.9623 41.5344 15.5614 41.2692 15.2246 40.9326V40.9258C14.8881 40.589 14.6156 40.1871 14.4365 39.75V39.7432C14.2573 39.3134 14.1572 38.8406 14.1572 38.3535C14.1572 37.8664 14.2573 37.4008 14.4365 36.9639C14.6156 36.5197 14.8881 36.119 15.2246 35.7822C15.5614 35.4456 15.9623 35.1731 16.4063 34.9941C16.8432 34.8151 17.3088 34.7149 17.7959 34.7148Z" fill="white"/>
<path d="M36.8789 34.7148C37.3658 34.7149 37.831 34.8152 38.2676 34.9941C38.7117 35.1731 39.1134 35.4456 39.4502 35.7822C39.7868 36.119 40.0591 36.5198 40.2383 36.9639C40.4171 37.4008 40.5176 37.8664 40.5176 38.3535C40.5176 38.8406 40.4171 39.3134 40.2383 39.7432C40.059 40.1945 39.7868 40.589 39.4502 40.9258V40.9326C39.1134 41.2693 38.7117 41.5343 38.2676 41.7207C37.831 41.8995 37.3657 41.9999 36.8789 42C36.3916 42 35.9181 41.8997 35.4883 41.7207H35.4814C35.0443 41.5343 34.6433 41.2693 34.3066 40.9326H34.2998V40.9258C33.9632 40.589 33.6979 40.1871 33.5117 39.75V39.7432C33.3325 39.3134 33.2324 38.8406 33.2324 38.3535C33.2324 37.8664 33.3325 37.4008 33.5117 36.9639C33.6979 36.5197 33.9632 36.119 34.2998 35.7822H34.3066C34.6432 35.4457 35.0441 35.1731 35.4883 34.9941C35.9181 34.815 36.3916 34.7148 36.8789 34.7148Z" fill="white"/>
<path d="M9.20606 0C10.0011 0 10.6607 0.314878 11.1621 0.816406C11.6635 1.31786 11.9927 2.01975 12.1289 2.76465L13.2031 8.53125C13.2318 8.52407 13.2535 8.52441 13.2822 8.52441H44.5645C44.6504 8.52441 44.7366 8.53216 44.8369 8.55371C45.1378 8.61106 45.4172 8.76117 45.625 8.96875C45.8828 9.21952 46.04 9.55592 46.04 9.93555C46.04 10.0071 46.0328 10.0865 46.0186 10.1797L43.2539 24.9932C43.1178 25.7382 42.7886 26.4409 42.2871 26.9424C41.7857 27.4438 41.1262 27.752 40.3311 27.752H16.5918C16.1334 27.752 15.711 27.9452 15.4102 28.2461C15.1093 28.5471 14.916 28.9695 14.916 29.4209C14.9161 29.8792 15.1093 30.3017 15.4102 30.6025C15.711 30.9033 16.1335 31.0967 16.5918 31.0967H40.8545C41.4131 31.0968 41.8711 31.5486 41.8711 32.1074C41.8709 32.6587 41.413 33.117 40.8545 33.1172H16.5918C15.5747 33.1172 14.6508 32.7012 13.9775 32.0352C13.3115 31.3619 12.8956 30.438 12.8955 29.4209C12.8955 28.4108 13.3114 27.4869 13.9775 26.8135C14.1923 26.6057 14.4283 26.4193 14.6787 26.2617C14.464 25.8822 14.3067 25.4445 14.2207 24.9932L10.1514 3.13086C10.0798 2.77269 9.9373 2.45688 9.72949 2.24902C9.5935 2.1129 9.41363 2.02734 9.20606 2.02734H3.00977C2.45844 2.02724 2.00023 1.56889 2 1.01758C2 0.458896 2.4583 0.000102901 3.00977 0H9.20606Z" fill="white"/>
<path d="M46.93 56.799C48.906 56.799 50.453 57.891 50.453 59.932C50.453 62.532 48.139 63.637 45.903 63.637C44.369 63.637 42.952 62.87 42.952 61.518C42.952 60.465 43.784 59.698 45.019 59.698C46.67 59.698 47.619 60.491 47.801 61.713C48.412 61.362 48.815 60.79 48.815 59.919C48.815 58.749 48.074 58.099 46.696 58.099C45.188 58.099 43.667 58.697 42.237 60.322L41.054 59.165C42.302 58.19 44.707 55.889 46.241 54.394C45.045 54.576 43.641 54.745 42.549 54.81L42.315 53.185C43.42 53.263 46.683 53.016 47.918 52.821C47.97 52.808 48.074 52.782 48.139 52.73L49.244 53.783C49.127 53.835 48.958 53.926 48.867 53.991C48.048 54.615 46.605 55.876 45.227 57.15C45.76 56.929 46.319 56.799 46.93 56.799ZM45.656 62.181C45.851 62.181 46.046 62.168 46.241 62.155C46.189 61.336 45.773 60.985 45.123 60.985C44.798 60.985 44.447 61.219 44.447 61.518C44.447 61.934 44.889 62.181 45.656 62.181Z" fill="white"/>
<path d="M36.5203 55.447C36.0133 55.447 35.4543 55.447 34.8693 55.46V57.735C35.0773 58.216 35.1813 58.775 35.1813 59.373C35.1813 61.219 34.1023 63.065 31.8533 63.936C31.3593 63.429 30.9693 63.117 30.3843 62.779C32.0613 62.298 32.8543 61.583 33.2053 60.725C32.9583 60.829 32.6853 60.881 32.3993 60.881C31.0213 60.881 30.2283 59.672 30.2283 58.606C30.2283 57.046 31.3073 56.175 32.5163 56.175C32.8283 56.175 33.1143 56.214 33.3743 56.305C33.3613 56.032 33.3613 55.759 33.3483 55.499C31.2813 55.551 29.1493 55.642 27.8363 55.733L27.7453 54.147C29.1623 54.121 31.2423 54.056 33.3093 54.017V53.536C33.3093 53.042 33.3093 52.678 33.3483 52.262L34.9603 52.379C34.9083 52.704 34.8693 53.068 34.8693 53.367V53.991C35.3893 53.978 35.8833 53.978 36.3643 53.978C37.1703 53.978 37.9503 53.991 39.0943 54.03L39.1073 55.525C38.2883 55.46 37.6123 55.447 36.5203 55.447ZM32.6723 59.555C33.2183 59.555 33.3873 59.087 33.4263 58.606C33.3093 57.969 32.9973 57.475 32.4903 57.475C32.0743 57.475 31.7103 57.904 31.7103 58.489C31.7103 58.996 32.0613 59.555 32.6723 59.555Z" fill="white"/>
<path d="M21.0287 52.834C21.2887 57.462 23.2517 60.764 26.3457 62.454C26.0467 62.935 25.5917 63.676 25.4227 63.988C23.0827 62.558 21.2627 60.257 20.2747 56.877C19.3517 60.283 17.3627 62.714 15.0357 63.988C14.8277 63.637 14.3207 63 13.9827 62.61C16.6607 61.336 18.6367 58.775 19.1177 55.109L19.8847 55.252C19.8197 54.953 19.7677 54.654 19.7287 54.355H17.3497C17.1027 54.355 16.8947 54.355 16.6867 54.368V52.821C16.8817 52.834 17.1027 52.834 17.3497 52.834H21.0287Z" fill="white"/>
<path d="M12.245 60.92H12.648C12.752 60.92 12.882 60.92 13.038 60.907V62.168C12.882 62.155 12.752 62.155 12.648 62.155H12.245C12.258 62.376 12.258 62.623 12.258 62.701C12.258 63.481 11.621 63.936 9.83999 63.936L9.26799 62.675C9.44999 62.714 9.86599 62.753 10.217 62.753C10.776 62.753 10.945 62.636 10.945 62.363V62.129H7.34399V63.403C7.34399 63.585 7.34399 63.78 7.36999 63.949H6.04399C6.06999 63.793 6.06999 63.585 6.06999 63.403V62.155H5.61499C5.49799 62.155 5.38099 62.155 5.22499 62.168V60.907C5.38099 60.92 5.49799 60.92 5.61499 60.92H6.06999V58.112C6.06999 58.021 6.05699 57.826 6.04399 57.709H8.51399V57.202H6.21299C5.87499 57.202 5.62799 57.202 5.36799 57.228V56.097C5.61499 56.123 5.87499 56.123 6.21299 56.123H7.14899V55.486H6.64199C6.34299 55.486 6.12199 55.486 5.88799 55.499V54.498C6.12199 54.511 6.34299 54.511 6.64199 54.511H7.14899V53.9H6.32999C6.01799 53.9 5.75799 53.9 5.51099 53.926V52.821C5.75799 52.847 6.01799 52.847 6.32999 52.847H7.14899V52.522C7.14899 52.444 7.14899 52.236 7.13599 52.119C7.42199 52.119 8.20199 52.145 8.47499 52.171C8.46199 52.275 8.44899 52.444 8.44899 52.535V52.847H9.82699V52.522C9.82699 52.444 9.81399 52.236 9.80099 52.119C10.087 52.119 10.867 52.145 11.14 52.171C11.127 52.275 11.114 52.444 11.114 52.535V52.847H11.959C12.284 52.847 12.531 52.847 12.778 52.821V53.926C12.531 53.9 12.284 53.9 11.959 53.9H11.114V54.511H11.66C11.959 54.511 12.18 54.511 12.401 54.498V55.499C12.18 55.486 11.959 55.486 11.66 55.486H11.114V56.123H12.076C12.414 56.123 12.674 56.123 12.921 56.097V57.228C12.674 57.202 12.414 57.202 12.076 57.202H9.74899V57.709H12.258C12.245 57.852 12.245 57.982 12.245 58.138V60.92ZM1.33799 60.582C1.35099 60.4 1.36399 60.179 1.36399 59.971V53.224C1.36399 52.99 1.35099 52.782 1.33799 52.587H5.04299C5.02999 52.808 5.01699 52.99 5.01699 53.224V59.971L5.04299 60.582H1.33799ZM3.79499 54.836V53.796H2.58599V54.836H3.79499ZM9.82699 53.9H8.44899V54.511H9.82699V53.9ZM9.82699 55.486H8.44899V56.123H9.82699V55.486ZM2.58599 55.954V57.098H3.79499V55.954H2.58599ZM2.58599 58.216V59.386H3.79499V58.216H2.58599ZM8.51399 59.412V58.71H7.34399V59.412H8.51399ZM10.945 59.412V58.71H9.74899V59.412H10.945ZM8.51399 60.322H7.34399V61.05H8.51399V60.322ZM9.74899 61.05H10.945V60.322H9.74899V61.05ZM0.791992 63.117C1.38999 62.493 1.96199 61.388 2.14399 60.686L3.14499 61.258C2.93699 61.986 2.45599 63.195 1.80599 63.988C1.63699 63.832 1.11699 63.403 0.791992 63.117ZM3.46999 61.245L4.39299 60.699C4.54899 61.219 5.10799 62.207 5.61499 62.779C5.61499 62.792 4.93899 63.468 4.71799 63.663C4.17199 62.883 3.66499 61.83 3.46999 61.245Z" fill="white"/>
</svg>
