<svg width="25" height="23" viewBox="0 0 25 23" fill="none" xmlns="http://www.w3.org/2000/svg">
<g clip-path="url(#clip0_1009_9194)">
<path fill-rule="evenodd" clip-rule="evenodd" d="M17.8993 1.57265L15.8903 3.24975H1.67711V21.2186H19.6459V8.90175L21.323 6.89855V22.8957H0V1.57265H17.8993ZM23.8578 0.84973C24.3522 0.991246 24.7246 1.42844 24.7222 1.94268C24.721 2.20695 24.6383 2.44316 24.4114 2.57285C19.6007 5.32172 13.4809 14.7813 11.9891 18.6441C11.7332 19.3068 10.6942 19.2961 10.1187 19.3068C10.1089 19.3071 9.71135 19.3134 9.70188 19.3134C9.13769 19.3134 8.61625 19.0091 8.33906 18.516L4.08502 9.52659C3.80416 9.02666 3.98177 8.39373 4.48167 8.11287L5.59848 7.4854C6.01242 7.25286 6.53135 7.33071 6.85882 7.67447L10.4775 11.5932C12.8508 7.4545 17.3089 2.98821 22.4778 0.883674C22.97 0.683307 23.4719 0.739279 23.8578 0.84973Z" fill="#E50013"/>
</g>
<defs>
<clipPath id="clip0_1009_9194">
<rect width="24.7222" height="22.25" fill="white" transform="translate(0 0.75)"/>
</clipPath>
</defs>
</svg>
