<svg width="25" height="22" viewBox="0 0 25 22" fill="none" xmlns="http://www.w3.org/2000/svg">
<g clip-path="url(#clip0_221_1335)">
<path fill-rule="evenodd" clip-rule="evenodd" d="M18.1004 0.81341L16.0688 2.47166H1.69596V20.2386H19.8667V8.06016L21.5626 6.07947V21.8968H0V0.81341H18.1004ZM24.1259 0.0986093C24.6258 0.238535 25.0024 0.670816 25 1.17928C24.9988 1.44058 24.9152 1.67413 24.6857 1.80237C19.8209 4.52035 13.6324 13.8737 12.1238 17.693C11.865 18.3482 10.8143 18.3377 10.2324 18.3482C10.2225 18.3486 9.82047 18.3548 9.81089 18.3548C9.24036 18.3548 8.71306 18.0539 8.43276 17.5664L4.13092 8.67798C3.8469 8.18367 4.0265 7.55785 4.53203 7.28014L5.66138 6.65972C6.07998 6.42979 6.60474 6.50677 6.93589 6.84667L10.5952 10.7214C12.9952 6.62917 17.5034 2.21306 22.7304 0.132172C23.2281 -0.0659438 23.7356 -0.0106003 24.1259 0.0986093Z" fill="#ACACAC"/>
</g>
<defs>
<clipPath id="clip0_221_1335">
<rect width="25" height="22" fill="white"/>
</clipPath>
</defs>
</svg>
