<svg width="169" height="70" viewBox="0 0 169 70" fill="none" xmlns="http://www.w3.org/2000/svg">
<path fill-rule="evenodd" clip-rule="evenodd" d="M1 0.518555V2.55191C2.21212 2.55191 3.19477 3.30258 3.19477 4.2285V4.45204C3.19477 5.37796 2.21212 6.12862 1 6.12862V7.24635C2.21212 7.24635 3.19477 7.99701 3.19477 8.92293V9.14647C3.19477 10.0724 2.21212 10.8231 1 10.8231V11.9408C2.21212 11.9408 3.19477 12.6914 3.19477 13.6174V13.8409C3.19477 14.7668 2.21212 15.5175 1 15.5175V16.6352C2.21212 16.6352 3.19477 17.3859 3.19477 18.3118V18.5353C3.19477 19.4613 2.21212 20.2119 1 20.2119V21.3296C2.21212 21.3296 3.19477 22.0803 3.19477 23.0062V23.2298C3.19477 24.1557 2.21212 24.9064 1 24.9064V26.0241C2.21212 26.0241 3.19477 26.7747 3.19477 27.7007V27.9242C3.19477 28.8501 2.21212 29.6008 1 29.6008V30.7185C2.21212 30.7185 3.19477 31.4692 3.19477 32.3951V32.6186C3.19477 33.5446 2.21212 34.2952 1 34.2952V35.4129C2.21212 35.4129 3.19477 36.1636 3.19477 37.0895V37.3131C3.19477 38.239 2.21212 38.9897 1 38.9897V40.1074C2.21212 40.1074 3.19477 40.858 3.19477 41.784V42.0075C3.19477 42.9334 2.21212 43.6841 1 43.6841V44.8018C2.21212 44.8018 3.19477 45.5525 3.19477 46.4784V46.7019C3.19477 47.6279 2.21212 48.3785 1 48.3785V49.4962C2.21212 49.4962 3.19477 50.2469 3.19477 51.1728V51.3964C3.19477 52.3223 2.21212 53.0729 1 53.0729V54.1907C2.21212 54.1907 3.19477 54.9413 3.19477 55.8673V56.0908C3.19477 57.0167 2.21212 57.7674 1 57.7674V58.8851C2.21212 58.8851 3.19477 59.6358 3.19477 60.5617V60.7852C3.19477 61.7111 2.21212 62.4618 1 62.4618V63.5795C2.21212 63.5795 3.19477 64.3302 3.19477 65.2561V65.4797C3.19477 66.4056 2.21212 67.1562 1 67.1562V69.4816H131.391V0.518555H1Z" stroke="white"/>
<mask id="mask0_766_2062" style="mask-type:luminance" maskUnits="userSpaceOnUse" x="123" y="0" width="46" height="70">
<path fill-rule="evenodd" clip-rule="evenodd" d="M123.409 0H168.018V70H123.409V0Z" fill="white"/>
</mask>
<g mask="url(#mask0_766_2062)">
<path fill-rule="evenodd" clip-rule="evenodd" d="M168.018 67.6397C167.277 67.6397 166.676 66.878 166.676 65.938V65.711C166.676 64.771 167.277 64.0093 168.018 64.0093V62.8747C167.277 62.8747 166.676 62.113 166.676 61.1729V60.946C166.676 60.0059 167.277 59.2442 168.018 59.2442V58.1097C167.277 58.1097 166.676 57.348 166.676 56.4079V56.181C166.676 55.2409 167.277 54.4792 168.018 54.4792V53.3447C167.277 53.3447 166.676 52.583 166.676 51.6429V51.416C166.676 50.4759 167.277 49.7142 168.018 49.7142V48.5796C167.277 48.5796 166.676 47.8179 166.676 46.8779V46.6509C166.676 45.7109 167.277 44.9492 168.018 44.9492V43.8146C167.277 43.8146 166.676 43.0529 166.676 42.1128V41.8859C166.676 40.9459 167.277 40.1841 168.018 40.1841V39.0496C167.277 39.0496 166.676 38.2879 166.676 37.3478V37.1209C166.676 36.1808 167.277 35.4191 168.018 35.4191V34.2846C167.277 34.2846 166.676 33.5229 166.676 32.5828V32.3559C166.676 31.4158 167.277 30.6541 168.018 30.6541V29.5196C167.277 29.5196 166.676 28.7578 166.676 27.8178V27.5909C166.676 26.6508 167.277 25.8891 168.018 25.8891V24.7545C167.277 24.7545 166.676 23.9928 166.676 23.0527V22.8258C166.676 21.8858 167.277 21.124 168.018 21.124V19.9895C167.277 19.9895 166.676 19.2278 166.676 18.2877V18.0608C166.676 17.1207 167.277 16.359 168.018 16.359V15.2245C167.277 15.2245 166.676 14.4628 166.676 13.5227V13.2958C166.676 12.3557 167.277 11.594 168.018 11.594V10.4595C167.277 10.4595 166.676 9.69773 166.676 8.75766V8.53075C166.676 7.59068 167.277 6.82896 168.018 6.82896V5.69443C167.277 5.69443 166.676 4.93271 166.676 3.99264V3.76573C166.676 2.82566 167.277 2.06394 168.018 2.06394V0H123.409V70H168.018V67.6397Z" fill="white" stroke="white"/>
</g>
<g clip-path="url(#clip0_766_2062)">
<path d="M138.515 31.3415C139.266 32.0918 140.362 32.3521 141.41 31.9459C143.13 31.3391 143.498 29.2958 143.491 28.0747C143.556 26.8788 143.408 25.7488 142.782 24.7961C141.936 23.4463 140.198 22.987 138.833 24.0159C136.723 25.8501 136.695 29.3856 138.515 31.3413L138.515 31.3415Z" fill="#E50013"/>
<path d="M152.029 31.45C151.207 32.1879 150.088 32.4302 149.078 32.0076C147.418 31.3736 147.246 29.326 147.369 28.106C147.418 26.91 147.674 25.7831 148.39 24.8413C149.365 23.506 151.145 23.075 152.411 24.1253C154.344 25.9919 154.035 29.5252 152.03 31.45L152.029 31.45Z" fill="#E50013"/>
<path d="M135.481 36.6786C135.312 35.0802 134.312 32.5428 131.87 32.83C128.038 33.5195 128.021 39.8062 131.626 40.6797C134.297 41.3809 136.053 38.8431 135.481 36.6789L135.481 36.6786Z" fill="#E50013"/>
<path d="M154.551 36.8319C154.873 35.2373 156.114 32.7179 158.527 33.0439C162.29 33.7944 161.707 40.0767 158.022 40.8917C155.286 41.5494 153.774 38.9854 154.551 36.8319Z" fill="#E50013"/>
<path d="M152.722 41.6137C151.766 40.9424 151.75 40.4328 151.557 39.4451C151.366 38.4906 151.167 37.4999 150.522 36.6202C149.551 35.4035 147.688 34.7574 145.968 34.9631C145.668 34.9842 145.38 34.9881 145.101 34.9837C144.821 34.9836 144.534 34.9753 144.236 34.9493C142.537 34.7163 140.614 35.332 139.527 36.5321C138.8 37.4007 138.506 38.3876 138.224 39.3384C137.936 40.3222 137.872 40.8313 136.852 41.4866C134.508 42.9609 133.433 46.5725 135.773 48.3994C137.445 49.7104 139.519 49.4661 141.581 48.874C142.148 48.7111 142.745 48.6565 143.33 48.7128C143.7 48.7484 144.071 48.7674 144.443 48.7702C144.815 48.7734 145.188 48.7603 145.56 48.7308C146.151 48.6839 146.742 48.748 147.293 48.9198C149.296 49.5447 151.346 49.8219 153.141 48.5388C155.654 46.751 154.925 43.1247 152.723 41.6141L152.722 41.6137Z" fill="#E50013"/>
</g>
<path d="M29.9556 53.5776C29.9556 54.3726 29.8354 55.1101 29.5951 55.7901C29.3548 56.4651 29.0171 57.0501 28.5818 57.5451C28.1466 58.0401 27.623 58.4276 27.0109 58.7076C26.3989 58.9826 25.7211 59.1201 24.9776 59.1201C24.234 59.1201 23.554 58.9826 22.9374 58.7076C22.3254 58.4276 21.7995 58.0401 21.3597 57.5451C20.9245 57.0501 20.5867 56.4651 20.3464 55.7901C20.1061 55.1101 19.986 54.3726 19.986 53.5776C19.986 52.7826 20.1061 52.0476 20.3464 51.3726C20.5867 50.6926 20.9245 50.1051 21.3597 49.6101C21.7995 49.1151 22.3254 48.7301 22.9374 48.4551C23.554 48.1751 24.234 48.0351 24.9776 48.0351C25.7211 48.0351 26.3989 48.1751 27.0109 48.4551C27.623 48.7351 28.1466 49.1226 28.5818 49.6176C29.0171 50.1076 29.3548 50.6926 29.5951 51.3726C29.8354 52.0476 29.9556 52.7826 29.9556 53.5776ZM28.0786 53.5776C28.0786 52.9826 28.0061 52.4501 27.861 51.9801C27.7204 51.5051 27.5164 51.1026 27.2489 50.7726C26.9815 50.4426 26.655 50.1901 26.2697 50.0151C25.8888 49.8401 25.4581 49.7526 24.9776 49.7526C24.497 49.7526 24.064 49.8401 23.6787 50.0151C23.2933 50.1901 22.9646 50.4426 22.6926 50.7726C22.4251 51.1026 22.2188 51.5051 22.0738 51.9801C21.9287 52.4501 21.8561 52.9826 21.8561 53.5776C21.8561 54.1726 21.9287 54.7076 22.0738 55.1826C22.2188 55.6526 22.4251 56.0526 22.6926 56.3826C22.9646 56.7076 23.2933 56.9576 23.6787 57.1326C24.064 57.3076 24.497 57.3951 24.9776 57.3951C25.4581 57.3951 25.8888 57.3076 26.2697 57.1326C26.655 56.9576 26.9815 56.7076 27.2489 56.3826C27.5164 56.0526 27.7204 55.6526 27.861 55.1826C28.0061 54.7076 28.0786 54.1726 28.0786 53.5776Z" fill="white"/>
<path d="M37.6035 48.1551V49.7601H33.2443V52.9701H36.9234V54.5826H33.2443V59.0001H31.4014V48.1551H37.6035Z" fill="white"/>
<path d="M45.2408 48.1551V49.7601H40.8816V52.9701H44.5607V54.5826H40.8816V59.0001H39.0387V48.1551H45.2408Z" fill="white"/>
<path d="M56.0656 56.4426C56.1654 56.4426 56.2515 56.4851 56.324 56.5701L57.0449 57.4326C56.6459 57.9776 56.154 58.3951 55.5692 58.6851C54.9889 58.9751 54.2907 59.1201 53.4746 59.1201C52.7447 59.1201 52.0873 58.9826 51.5025 58.7076C50.9222 58.4326 50.4257 58.0501 50.0131 57.5601C49.6006 57.0701 49.2832 56.4851 49.0611 55.8051C48.8435 55.1251 48.7347 54.3826 48.7347 53.5776C48.7347 52.7626 48.8571 52.0176 49.1019 51.3426C49.3467 50.6626 49.6913 50.0776 50.1356 49.5876C50.5799 49.0976 51.1103 48.7176 51.7269 48.4476C52.348 48.1726 53.0326 48.0351 53.7806 48.0351C54.5106 48.0351 55.1475 48.1651 55.6916 48.4251C56.2402 48.6801 56.7094 49.0201 57.0993 49.4451L56.4872 50.3826C56.451 50.4426 56.4034 50.4951 56.3444 50.5401C56.29 50.5851 56.213 50.6076 56.1132 50.6076C56.0089 50.6076 55.9024 50.5626 55.7936 50.4726C55.6848 50.3826 55.5465 50.2851 55.3788 50.1801C55.211 50.0751 54.9979 49.9776 54.7395 49.8876C54.4856 49.7976 54.1615 49.7526 53.767 49.7526C53.3046 49.7526 52.8784 49.8426 52.4885 50.0226C52.1032 50.1976 51.7699 50.4501 51.4889 50.7801C51.2123 51.1101 50.9947 51.5126 50.836 51.9876C50.6819 52.4576 50.6048 52.9876 50.6048 53.5776C50.6048 54.1876 50.6819 54.7301 50.836 55.2051C50.9947 55.6801 51.2078 56.0801 51.4753 56.4051C51.7427 56.7301 52.0578 56.9801 52.4205 57.1551C52.7832 57.3251 53.1731 57.4101 53.5902 57.4101C53.8396 57.4101 54.064 57.3951 54.2635 57.3651C54.4675 57.3351 54.6534 57.2876 54.8211 57.2226C54.9934 57.1576 55.1543 57.0751 55.304 56.9751C55.4581 56.8701 55.61 56.7426 55.7596 56.5926C55.8049 56.5476 55.8525 56.5126 55.9024 56.4876C55.9523 56.4576 56.0067 56.4426 56.0656 56.4426Z" fill="white"/>
<path d="M67.8631 53.5776C67.8631 54.3726 67.743 55.1101 67.5027 55.7901C67.2624 56.4651 66.9247 57.0501 66.4894 57.5451C66.0542 58.0401 65.5306 58.4276 64.9185 58.7076C64.3065 58.9826 63.6287 59.1201 62.8851 59.1201C62.1416 59.1201 61.4616 58.9826 60.845 58.7076C60.2329 58.4276 59.707 58.0401 59.2673 57.5451C58.832 57.0501 58.4943 56.4651 58.254 55.7901C58.0137 55.1101 57.8936 54.3726 57.8936 53.5776C57.8936 52.7826 58.0137 52.0476 58.254 51.3726C58.4943 50.6926 58.832 50.1051 59.2673 49.6101C59.707 49.1151 60.2329 48.7301 60.845 48.4551C61.4616 48.1751 62.1416 48.0351 62.8851 48.0351C63.6287 48.0351 64.3065 48.1751 64.9185 48.4551C65.5306 48.7351 66.0542 49.1226 66.4894 49.6176C66.9247 50.1076 67.2624 50.6926 67.5027 51.3726C67.743 52.0476 67.8631 52.7826 67.8631 53.5776ZM65.9862 53.5776C65.9862 52.9826 65.9136 52.4501 65.7686 51.9801C65.628 51.5051 65.424 51.1026 65.1565 50.7726C64.889 50.4426 64.5626 50.1901 64.1772 50.0151C63.7964 49.8401 63.3657 49.7526 62.8851 49.7526C62.4046 49.7526 61.9716 49.8401 61.5863 50.0151C61.2009 50.1901 60.8722 50.4426 60.6002 50.7726C60.3327 51.1026 60.1264 51.5051 59.9813 51.9801C59.8363 52.4501 59.7637 52.9826 59.7637 53.5776C59.7637 54.1726 59.8363 54.7076 59.9813 55.1826C60.1264 55.6526 60.3327 56.0526 60.6002 56.3826C60.8722 56.7076 61.2009 56.9576 61.5863 57.1326C61.9716 57.3076 62.4046 57.3951 62.8851 57.3951C63.3657 57.3951 63.7964 57.3076 64.1772 57.1326C64.5626 56.9576 64.889 56.7076 65.1565 56.3826C65.424 56.0526 65.628 55.6526 65.7686 55.1826C65.9136 54.7076 65.9862 54.1726 65.9862 53.5776Z" fill="white"/>
<path d="M73.2669 57.3726C73.6205 57.3726 73.9356 57.3076 74.2122 57.1776C74.4932 57.0476 74.729 56.8651 74.9194 56.6301C75.1144 56.3951 75.2617 56.1101 75.3614 55.7751C75.4657 55.4401 75.5179 55.0651 75.5179 54.6501V48.1551H77.3472V54.6501C77.3472 55.2951 77.252 55.8926 77.0616 56.4426C76.8757 56.9876 76.6059 57.4601 76.2523 57.8601C75.8987 58.2551 75.4703 58.5651 74.967 58.7901C74.4638 59.0101 73.8971 59.1201 73.2669 59.1201C72.6367 59.1201 72.07 59.0101 71.5668 58.7901C71.0635 58.5651 70.6351 58.2551 70.2815 57.8601C69.9324 57.4601 69.6626 56.9876 69.4722 56.4426C69.2863 55.8926 69.1934 55.2951 69.1934 54.6501V48.1551H71.0227V54.6426C71.0227 55.0576 71.0726 55.4326 71.1723 55.7676C71.2766 56.1026 71.4239 56.3901 71.6144 56.6301C71.8048 56.8651 72.0383 57.0476 72.3148 57.1776C72.5959 57.3076 72.9133 57.3726 73.2669 57.3726Z" fill="white"/>
<path d="M81.0948 55.1826V59.0001H79.2655V48.1551H82.4685C83.1259 48.1551 83.6949 48.2401 84.1754 48.4101C84.656 48.5801 85.0527 48.8176 85.3655 49.1226C85.6784 49.4276 85.9096 49.7926 86.0592 50.2176C86.2088 50.6426 86.2836 51.1076 86.2836 51.6126C86.2836 52.1376 86.2043 52.6201 86.0456 53.0601C85.8869 53.4951 85.6489 53.8701 85.3315 54.1851C85.0142 54.5001 84.6175 54.7451 84.1414 54.9201C83.6654 55.0951 83.1078 55.1826 82.4685 55.1826H81.0948ZM81.0948 53.6076H82.4685C82.804 53.6076 83.0964 53.5626 83.3458 53.4726C83.5951 53.3776 83.8014 53.2451 83.9646 53.0751C84.1278 52.9001 84.2503 52.6901 84.3319 52.4451C84.4135 52.1951 84.4543 51.9176 84.4543 51.6126C84.4543 51.3226 84.4135 51.0601 84.3319 50.8251C84.2503 50.5901 84.1278 50.3901 83.9646 50.2251C83.8014 50.0601 83.5951 49.9351 83.3458 49.8501C83.0964 49.7601 82.804 49.7151 82.4685 49.7151H81.0948V53.6076Z" fill="white"/>
<path d="M97.1372 53.5776C97.1372 54.3726 97.0171 55.1101 96.7768 55.7901C96.5365 56.4651 96.1988 57.0501 95.7635 57.5451C95.3283 58.0401 94.8047 58.4276 94.1926 58.7076C93.5806 58.9826 92.9028 59.1201 92.1593 59.1201C91.4157 59.1201 90.7357 58.9826 90.1191 58.7076C89.5071 58.4276 88.9811 58.0401 88.5414 57.5451C88.1061 57.0501 87.7684 56.4651 87.5281 55.7901C87.2878 55.1101 87.1677 54.3726 87.1677 53.5776C87.1677 52.7826 87.2878 52.0476 87.5281 51.3726C87.7684 50.6926 88.1061 50.1051 88.5414 49.6101C88.9811 49.1151 89.5071 48.7301 90.1191 48.4551C90.7357 48.1751 91.4157 48.0351 92.1593 48.0351C92.9028 48.0351 93.5806 48.1751 94.1926 48.4551C94.8047 48.7351 95.3283 49.1226 95.7635 49.6176C96.1988 50.1076 96.5365 50.6926 96.7768 51.3726C97.0171 52.0476 97.1372 52.7826 97.1372 53.5776ZM95.2603 53.5776C95.2603 52.9826 95.1878 52.4501 95.0427 51.9801C94.9021 51.5051 94.6981 51.1026 94.4306 50.7726C94.1631 50.4426 93.8367 50.1901 93.4514 50.0151C93.0705 49.8401 92.6398 49.7526 92.1593 49.7526C91.6787 49.7526 91.2457 49.8401 90.8604 50.0151C90.475 50.1901 90.1463 50.4426 89.8743 50.7726C89.6068 51.1026 89.4005 51.5051 89.2554 51.9801C89.1104 52.4501 89.0378 52.9826 89.0378 53.5776C89.0378 54.1726 89.1104 54.7076 89.2554 55.1826C89.4005 55.6526 89.6068 56.0526 89.8743 56.3826C90.1463 56.7076 90.475 56.9576 90.8604 57.1326C91.2457 57.3076 91.6787 57.3951 92.1593 57.3951C92.6398 57.3951 93.0705 57.3076 93.4514 57.1326C93.8367 56.9576 94.1631 56.7076 94.4306 56.3826C94.6981 56.0526 94.9021 55.6526 95.0427 55.1826C95.1878 54.7076 95.2603 54.1726 95.2603 53.5776Z" fill="white"/>
<path d="M99.542 48.1551C99.6236 48.1551 99.6916 48.1601 99.746 48.1701C99.8004 48.1751 99.848 48.1901 99.8888 48.2151C99.9341 48.2351 99.9772 48.2676 100.018 48.3126C100.059 48.3526 100.104 48.4076 100.154 48.4776L105.316 55.7301C105.297 55.5551 105.284 55.3851 105.275 55.2201C105.27 55.0501 105.268 54.8926 105.268 54.7476V48.1551H106.88V59.0001H105.934C105.789 59.0001 105.669 58.9751 105.574 58.9251C105.479 58.8751 105.386 58.7851 105.295 58.6551L100.154 51.4326C100.168 51.5926 100.177 51.7526 100.181 51.9126C100.19 52.0676 100.195 52.2101 100.195 52.3401V59.0001H98.5831V48.1551H99.542Z" fill="white"/>
<path d="M20.6064 29.2616H25.4411L17.8381 11.6746H22.8678C23.4396 11.6746 23.901 11.8179 24.2519 12.1046C24.6028 12.3769 24.8693 12.7567 25.0512 13.2441L28.2874 22.3816C28.5603 23.1556 28.8007 23.8651 29.0087 24.5101C29.2296 25.1407 29.4051 25.7714 29.535 26.4021C29.652 25.7571 29.808 25.1192 30.0029 24.4886C30.2108 23.8436 30.4448 23.1412 30.7047 22.3816L33.9019 13.2441C34.0448 12.8284 34.2983 12.4629 34.6622 12.1476C35.0391 11.8322 35.5004 11.6746 36.0463 11.6746H41.115L33.4925 29.2616H38.3467V32.8091H32.4982V34.7011H38.3467V38.2486H32.4982V43.0001H26.4548V38.2486H20.6064V34.7011H26.4548V32.8091H20.6064V29.2616Z" fill="white"/>
<path d="M60.3009 14.4266C60.3009 14.8852 60.2359 15.3009 60.1059 15.6736C59.976 16.0462 59.768 16.3759 59.4821 16.6626C59.2092 16.9349 58.8453 17.1499 58.3904 17.3076C57.9355 17.4509 57.3897 17.5226 56.7528 17.5226H49.9686L49.1694 22.7041C49.7022 22.6037 50.2156 22.5321 50.7094 22.4891C51.2033 22.4317 51.6842 22.4031 52.1521 22.4031C53.6467 22.4031 54.9658 22.6539 56.1095 23.1556C57.2532 23.6572 58.215 24.3452 58.9947 25.2196C59.7745 26.0796 60.3594 27.0972 60.7493 28.2726C61.1522 29.4336 61.3536 30.6806 61.3536 32.0136C61.3536 33.6906 61.0807 35.2242 60.5348 36.6146C60.002 37.9906 59.2547 39.1802 58.2929 40.1836C57.3312 41.1869 56.181 41.9681 54.8423 42.5271C53.5167 43.0717 52.0611 43.3441 50.4755 43.3441C49.5528 43.3441 48.669 43.2366 47.8242 43.0216C46.9924 42.8066 46.2061 42.5199 45.4653 42.1616C44.7375 41.7889 44.0617 41.3661 43.4379 40.8931C42.814 40.4057 42.2487 39.8897 41.7418 39.3451L43.6133 36.5931C43.8083 36.3064 44.0357 36.0914 44.2957 35.9481C44.5556 35.7904 44.835 35.7116 45.1339 35.7116C45.5238 35.7116 45.8877 35.8334 46.2256 36.0771C46.5765 36.3064 46.9534 36.5644 47.3563 36.8511C47.7722 37.1234 48.2531 37.3742 48.799 37.6036C49.3448 37.8329 50.0206 37.9476 50.8264 37.9476C51.6322 37.9476 52.321 37.8042 52.8929 37.5176C53.4647 37.2166 53.9261 36.8152 54.277 36.3136C54.6409 35.7976 54.9008 35.2027 55.0568 34.5291C55.2257 33.8411 55.3102 33.1101 55.3102 32.3361C55.3102 30.8167 54.9203 29.6629 54.1405 28.8746C53.3607 28.0719 52.256 27.6706 50.8264 27.6706C49.5528 27.6706 48.3051 27.9357 47.0834 28.4661L43.3404 27.3481L45.7578 11.6746H60.3009V14.4266Z" fill="white"/>
<path d="M85.2963 27.3266C85.2963 30.0642 85.0299 32.4364 84.497 34.4431C83.9642 36.4497 83.2234 38.1124 82.2746 39.4311C81.3389 40.7497 80.2212 41.7316 78.9215 42.3766C77.6348 43.0216 76.2377 43.3441 74.7301 43.3441C73.2225 43.3441 71.8254 43.0216 70.5387 42.3766C69.2651 41.7316 68.1604 40.7497 67.2246 39.4311C66.2889 38.1124 65.5545 36.4497 65.0217 34.4431C64.5018 32.4364 64.2419 30.0642 64.2419 27.3266C64.2419 24.5889 64.5018 22.2167 65.0217 20.2101C65.5545 18.2034 66.2889 16.5407 67.2246 15.2221C68.1604 13.9034 69.2651 12.9287 70.5387 12.2981C71.8254 11.6531 73.2225 11.3306 74.7301 11.3306C76.2377 11.3306 77.6348 11.6531 78.9215 12.2981C80.2212 12.9287 81.3389 13.9034 82.2746 15.2221C83.2234 16.5407 83.9642 18.2034 84.497 20.2101C85.0299 22.2167 85.2963 24.5889 85.2963 27.3266ZM79.058 27.3266C79.058 25.1622 78.9345 23.3921 78.6876 22.0161C78.4406 20.6257 78.1092 19.5364 77.6933 18.7481C77.2904 17.9597 76.8291 17.4222 76.3092 17.1356C75.7893 16.8346 75.263 16.6841 74.7301 16.6841C74.1972 16.6841 73.6709 16.8346 73.151 17.1356C72.6442 17.4222 72.1893 17.9597 71.7864 18.7481C71.3965 19.5364 71.0781 20.6257 70.8311 22.0161C70.5972 23.3921 70.4802 25.1622 70.4802 27.3266C70.4802 29.5052 70.5972 31.2826 70.8311 32.6586C71.0781 34.0346 71.3965 35.1239 71.7864 35.9266C72.1893 36.7149 72.6442 37.2596 73.151 37.5606C73.6709 37.8472 74.1972 37.9906 74.7301 37.9906C75.263 37.9906 75.7893 37.8472 76.3092 37.5606C76.8291 37.2596 77.2904 36.7149 77.6933 35.9266C78.1092 35.1239 78.4406 34.0346 78.6876 32.6586C78.9345 31.2826 79.058 29.5052 79.058 27.3266Z" fill="white"/>
<path d="M107.913 27.3266C107.913 30.0642 107.647 32.4364 107.114 34.4431C106.581 36.4497 105.84 38.1124 104.892 39.4311C103.956 40.7497 102.838 41.7316 101.539 42.3766C100.252 43.0216 98.8547 43.3441 97.3471 43.3441C95.8395 43.3441 94.4424 43.0216 93.1558 42.3766C91.8821 41.7316 90.7774 40.7497 89.8416 39.4311C88.9059 38.1124 88.1716 36.4497 87.6387 34.4431C87.1189 32.4364 86.8589 30.0642 86.8589 27.3266C86.8589 24.5889 87.1189 22.2167 87.6387 20.2101C88.1716 18.2034 88.9059 16.5407 89.8416 15.2221C90.7774 13.9034 91.8821 12.9287 93.1558 12.2981C94.4424 11.6531 95.8395 11.3306 97.3471 11.3306C98.8547 11.3306 100.252 11.6531 101.539 12.2981C102.838 12.9287 103.956 13.9034 104.892 15.2221C105.84 16.5407 106.581 18.2034 107.114 20.2101C107.647 22.2167 107.913 24.5889 107.913 27.3266ZM101.675 27.3266C101.675 25.1622 101.552 23.3921 101.305 22.0161C101.058 20.6257 100.726 19.5364 100.31 18.7481C99.9075 17.9597 99.4461 17.4222 98.9262 17.1356C98.4064 16.8346 97.88 16.6841 97.3471 16.6841C96.8143 16.6841 96.2879 16.8346 95.7681 17.1356C95.2612 17.4222 94.8063 17.9597 94.4034 18.7481C94.0135 19.5364 93.6951 20.6257 93.4482 22.0161C93.2142 23.3921 93.0973 25.1622 93.0973 27.3266C93.0973 29.5052 93.2142 31.2826 93.4482 32.6586C93.6951 34.0346 94.0135 35.1239 94.4034 35.9266C94.8063 36.7149 95.2612 37.2596 95.7681 37.5606C96.2879 37.8472 96.8143 37.9906 97.3471 37.9906C97.88 37.9906 98.4064 37.8472 98.9262 37.5606C99.4461 37.2596 99.9075 36.7149 100.31 35.9266C100.726 35.1239 101.058 34.0346 101.305 32.6586C101.552 31.2826 101.675 29.5052 101.675 27.3266Z" fill="white"/>
<defs>
<clipPath id="clip0_766_2062">
<rect width="32" height="27" fill="white" transform="translate(127.547 24.939) rotate(-6.63466)"/>
</clipPath>
</defs>
</svg>
