<svg width="160" height="56" viewBox="0 0 160 56" fill="none" xmlns="http://www.w3.org/2000/svg">
<path fill-rule="evenodd" clip-rule="evenodd" d="M33.9708 36.2468C35.0015 36.6455 35.4886 37.4609 36.1681 38.1677C37.3302 39.3932 38.3337 40.6345 39.6022 41.7649C39.6838 41.8351 39.9126 41.8351 39.9737 41.7649C41.5798 39.853 42.8755 37.9208 44.844 36.3759C45.92 35.531 47.6755 36.1471 48.0063 37.5742C48.1694 38.2674 47.9338 38.9107 47.56 39.4045C45.6821 41.8804 43.8586 43.9259 41.9762 46.2546C41.9241 48.8279 41.9762 50.9935 41.9762 53.6868C41.9762 54.7515 40.7145 55.5806 39.8673 55.5647C39.2556 55.5625 38.5104 55.2974 38.1366 54.6088C37.9554 54.2871 37.824 53.9066 37.8127 53.6008C37.7153 51.1634 37.6043 48.7305 37.6088 46.2908C34.9064 42.8431 31.3296 39.8145 31.1823 38.5437C31.0147 37.0917 32.093 35.5219 33.9708 36.2468Z" fill="#E50012"/>
<path fill-rule="evenodd" clip-rule="evenodd" d="M65.9461 51.2275V38.1797C65.9347 34.8475 61.3567 35.3934 61.5153 38.1027V54.3376C61.5153 54.3376 61.5153 55.69 63.1417 55.5631H70.3723C70.3723 55.5631 72.4564 55.6107 72.5787 53.5539C72.5787 53.5539 72.5628 51.7621 70.8594 51.3883L66.1681 51.3702C66.1681 51.3702 65.8668 51.2977 65.9393 50.9783" fill="#E50012"/>
<path fill-rule="evenodd" clip-rule="evenodd" d="M58.8317 53.4361C58.6482 55.237 57.3367 55.6243 56.5393 55.57C55.9662 55.4635 54.8743 55.2574 54.6252 53.9798C54.4643 53.1597 54.4281 51.9071 54.4077 51.7236C54.4009 51.6738 49.0482 51.7055 49.0414 51.7055C48.1058 52.9242 47.1861 54.4011 46.3253 55.2324C46.015 55.5292 45.5552 55.6085 45.2131 55.5813C44.3727 55.5315 43.4598 55.0943 43.1449 54.238C42.9524 53.7193 42.7644 53.1167 43.1314 52.5866C45.6503 48.9645 47.9178 45.9336 50.5183 42.4135C51.9522 40.4699 53.232 38.746 54.6999 36.8727C55.4588 35.91 56.118 35.876 56.8043 35.8624C56.7613 35.8624 58.6664 35.8216 58.8272 37.5749V53.4293M53.4858 47.4518C53.5039 47.4541 54.4213 47.4835 54.4258 47.4518C54.4576 46.4234 54.4258 45.2024 54.4077 44.208C53.6398 45.2206 53.0101 46.1176 52.2716 47.1075C52.2014 47.2004 52.1561 47.4201 52.3713 47.4337C52.7654 47.4586 53.2774 47.4201 53.4858 47.4518Z" fill="#E50012"/>
<path fill-rule="evenodd" clip-rule="evenodd" d="M33.0476 45.8704C33.0476 51.2911 28.6508 55.6857 23.221 55.6857C17.798 55.6857 13.3989 51.2911 13.3989 45.8704C13.3989 40.4452 17.798 36.0438 23.221 36.0438C28.6508 36.0438 33.0476 40.4452 33.0476 45.8704ZM23.2595 40.5965C20.3464 40.5965 17.9815 42.9569 17.9815 45.87C17.9815 48.7808 20.3464 51.1412 23.2595 51.1412C26.1726 51.1412 28.533 48.7808 28.533 45.87C28.533 42.9569 26.1726 40.5965 23.2595 40.5965Z" fill="#E50012"/>
<path fill-rule="evenodd" clip-rule="evenodd" d="M78.4848 44.6265C78.9197 41.163 81.2439 38.2318 84.3337 36.9202C88.06 35.33 92.5157 36.2202 95.1162 39.4641C95.6757 40.1618 95.5058 41.0928 94.9871 41.7973C94.4411 42.5267 93.5713 42.9004 92.7898 42.6014C91.4714 42.0849 90.5653 40.907 89.0975 40.5989C86.0779 39.9737 83.2395 41.9807 82.8046 44.921C82.3742 47.8386 84.0369 50.6407 87.0089 51.2025C89.0861 51.5967 90.7216 50.4709 92.4341 49.268C93.2451 48.6949 94.6042 48.9826 95.1117 50.002C95.4152 50.6113 95.6395 51.2705 95.268 51.9297C93.8703 54.401 91.0274 55.289 88.3998 55.5405C86.386 55.7353 84.5443 55.033 82.8205 53.9842C79.6582 52.0588 78.0091 48.3868 78.4848 44.6265Z" fill="#E50012"/>
<path fill-rule="evenodd" clip-rule="evenodd" d="M148.919 37.5676C148.919 36.4078 149.862 35.4678 151.021 35.4678C152.186 35.4678 153.128 36.4078 153.128 37.5676V37.5835V52.969L153.087 53.6373C152.435 55.7303 150.213 55.5355 150.213 55.5355C148.847 55.5876 148.178 54.6181 148.178 54.6181L142.454 44.3588C142.395 44.2614 142.223 44.3815 142.219 44.4812V53.6395C142.219 54.8288 141.256 55.796 140.064 55.796C138.877 55.796 137.903 54.8288 137.903 53.6395V38.5508C137.903 38.0977 138.139 37.7466 138.139 37.7466C138.327 37.3978 138.649 36.623 139.849 36.1202C141.004 35.6399 142.674 36.2153 143.272 37.1939C145.24 40.4173 146.874 43.7268 148.742 46.8733C148.933 46.9072 148.919 46.5924 148.919 46.5924V37.5676Z" fill="#E50012"/>
<path fill-rule="evenodd" clip-rule="evenodd" d="M124.544 37.5676C124.544 36.4078 125.486 35.4678 126.65 35.4678C127.81 35.4678 128.753 36.4078 128.753 37.5676V37.5835V52.969L128.712 53.6373C128.059 55.7303 125.842 55.5355 125.842 55.5355C124.469 55.5876 123.808 54.6181 123.808 54.6181L118.076 44.3588C118.02 44.2614 117.843 44.3815 117.843 44.4812V53.6395C117.843 54.8288 116.878 55.796 115.687 55.796C114.495 55.796 113.535 54.8288 113.535 53.6395V38.5508C113.535 38.0977 113.761 37.7466 113.761 37.7466C113.954 37.3978 114.273 36.623 115.474 36.1202C116.629 35.6399 118.303 36.2153 118.899 37.1939C120.865 40.4173 122.5 43.7268 124.36 46.8733C124.56 46.9072 124.544 46.5924 124.544 46.5924V37.5676Z" fill="#E50012"/>
<path fill-rule="evenodd" clip-rule="evenodd" d="M135.626 53.5172C135.626 54.7744 134.602 55.796 133.345 55.796C132.092 55.796 131.07 54.7744 131.07 53.5172V53.5058V37.7194C131.07 36.4644 132.092 35.4474 133.347 35.4474C134.602 35.4474 135.626 36.4644 135.626 37.7194V37.7375V53.5172Z" fill="#E50012"/>
<path fill-rule="evenodd" clip-rule="evenodd" d="M59.2022 28.583C58.6812 28.583 58.1647 28.3452 57.8272 27.8966C57.2631 27.1378 57.4172 26.0618 58.1738 25.4955C62.7269 22.0863 69.697 20.0499 76.819 20.0499C83.9137 20.0499 90.8657 22.0863 95.4166 25.4955C96.1777 26.0618 96.334 27.1378 95.7609 27.8966C95.1991 28.6532 94.1231 28.8095 93.362 28.2387C90.2881 25.9395 84.3282 23.4817 76.8212 23.4817H76.819C69.2734 23.4817 63.3045 25.9395 60.2283 28.241C59.9225 28.472 59.5624 28.583 59.2022 28.583Z" fill="#E50012"/>
<path fill-rule="evenodd" clip-rule="evenodd" d="M60.77 31.5142C60.4325 31.5142 60.095 31.367 59.8617 31.0861C59.4539 30.5855 59.5264 29.847 60.027 29.4347C63.964 26.1977 70.241 24.2677 76.8215 24.2677C83.3681 24.2677 89.6269 26.1977 93.5662 29.4347C94.0668 29.8447 94.1415 30.5832 93.7315 31.0861C93.317 31.5867 92.5785 31.6569 92.0779 31.2469C88.5441 28.3452 82.8403 26.6123 76.8215 26.6123C70.8594 26.6123 64.9924 28.3882 61.5153 31.2469C61.2978 31.4282 61.0328 31.5142 60.77 31.5142Z" fill="#E50012"/>
<path fill-rule="evenodd" clip-rule="evenodd" d="M51.5791 6.82324C50.8814 6.82324 50.1905 7.01126 49.5856 7.36916C48.6841 7.90376 48.0385 8.76229 47.7757 9.77711C47.5175 10.7987 47.6647 11.8543 48.2016 12.7582C48.897 13.9361 50.1882 14.6746 51.5723 14.6882L51.5972 14.6904C52.2971 14.6882 52.988 14.4979 53.5929 14.14C54.4967 13.6054 55.1377 12.7514 55.3982 11.7343C55.661 10.7172 55.5092 9.65932 54.9746 8.75549C54.2724 7.56398 52.9676 6.82324 51.5791 6.82324Z" fill="#E50012"/>
<path fill-rule="evenodd" clip-rule="evenodd" d="M76.7961 9.84971C74.626 9.84971 72.8591 11.6143 72.8591 13.7822C72.8591 15.9523 74.626 17.7169 76.7961 17.7169C78.9639 17.7169 80.7263 15.9523 80.7263 13.7822C80.7263 11.6143 78.9639 9.84971 76.7961 9.84971Z" fill="#E50012"/>
<path fill-rule="evenodd" clip-rule="evenodd" d="M76.7961 0C74.626 0 72.8591 1.76462 72.8591 3.93245C72.8591 6.10255 74.626 7.86717 76.7961 7.86717C78.9639 7.86717 80.7263 6.10255 80.7263 3.93245C80.7263 1.76462 78.9639 0 76.7961 0Z" fill="#E50012"/>
<path fill-rule="evenodd" clip-rule="evenodd" d="M66.3322 11.2197C65.981 11.2197 65.6322 11.265 65.2924 11.3579C63.1971 11.931 61.9602 14.0988 62.5356 16.1919C62.9977 17.8773 64.5494 19.0665 66.314 19.0846L66.4024 19.0869C66.7308 19.0801 67.057 19.0325 67.3742 18.9465C68.3845 18.6701 69.2271 18.0132 69.7504 17.1026C70.2691 16.1874 70.4028 15.1295 70.1264 14.1147C69.6575 12.409 68.1013 11.2197 66.3322 11.2197Z" fill="#E50012"/>
<path fill-rule="evenodd" clip-rule="evenodd" d="M56.5933 15.3018C55.8934 15.3018 55.2047 15.4898 54.6022 15.8499C53.6961 16.3823 53.0528 17.2385 52.79 18.2556C52.5317 19.275 52.6835 20.3351 53.2136 21.2367C53.9113 22.4146 55.2025 23.1531 56.5865 23.1667L56.6114 23.1689C57.3137 23.1689 57.9978 22.9787 58.6071 22.6207C59.5109 22.0861 60.1543 21.2299 60.4125 20.2128C60.6753 19.1957 60.5235 18.1378 59.9889 17.234C59.2844 16.0425 57.9842 15.3018 56.5933 15.3018Z" fill="#E50012"/>
<path fill-rule="evenodd" clip-rule="evenodd" d="M88.2964 11.3581C87.9544 11.2653 87.61 11.22 87.2589 11.22C85.492 11.22 83.9336 12.4115 83.4669 14.1172C82.8961 16.208 84.1284 18.3736 86.2215 18.9467C86.5612 19.0396 86.9123 19.0871 87.2612 19.0871C89.0258 19.0871 90.5866 17.8956 91.0532 16.1922C91.6218 14.0991 90.3872 11.9312 88.2964 11.3581Z" fill="#E50012"/>
<path fill-rule="evenodd" clip-rule="evenodd" d="M90.8935 1.85791C90.5537 1.7673 90.2094 1.71973 89.856 1.71973C88.0891 1.71973 86.5329 2.91124 86.064 4.6147C85.4932 6.70552 86.73 8.87335 88.8208 9.44646C89.1606 9.53933 89.5117 9.5869 89.8583 9.5869C91.6229 9.5869 93.1859 8.39312 93.6526 6.68966C94.2257 4.59884 92.9866 2.43101 90.8935 1.85791Z" fill="#E50012"/>
<path fill-rule="evenodd" clip-rule="evenodd" d="M98.9898 15.8492C98.3827 15.4913 97.6918 15.301 96.9918 15.301C95.6055 15.301 94.3075 16.0417 93.603 17.2333C93.0684 18.1371 92.9166 19.1972 93.1794 20.212C93.4377 21.2291 94.081 22.0854 94.9848 22.6223C95.5942 22.9802 96.2805 23.1682 96.985 23.1682C98.3691 23.1682 99.6671 22.4297 100.372 21.2382C100.906 20.3344 101.056 19.2765 100.795 18.2571C100.532 17.2378 99.8913 16.3815 98.9898 15.8492Z" fill="#E50012"/>
<path fill-rule="evenodd" clip-rule="evenodd" d="M105.81 9.77907C105.55 8.76197 104.906 7.90571 104.003 7.37112C103.396 7.01321 102.705 6.8252 102.007 6.8252C100.623 6.8252 99.3226 7.56366 98.6181 8.75518C98.0835 9.66127 97.9318 10.7169 98.1923 11.734C98.4528 12.7533 99.0961 13.6073 99.9999 14.1397C100.607 14.5021 101.296 14.6901 101.998 14.6901C103.384 14.6901 104.684 13.9516 105.389 12.7579C105.924 11.8563 106.073 10.7984 105.81 9.77907Z" fill="#E50012"/>
<path fill-rule="evenodd" clip-rule="evenodd" d="M63.7368 9.58626C64.0879 9.58626 64.4368 9.53869 64.7743 9.44582C66.8628 8.87271 68.0997 6.70714 67.5288 4.61406C67.0622 2.90834 65.5014 1.71682 63.7323 1.71682C63.3834 1.71682 63.0323 1.76439 62.6948 1.85953C60.5995 2.43037 59.3649 4.59821 59.9357 6.69129C60.4001 8.37889 61.9518 9.56814 63.7142 9.584L63.7368 9.58626Z" fill="#E50012"/>
<path fill-rule="evenodd" clip-rule="evenodd" d="M157.721 35.4756C158.978 35.4756 160 36.4949 160 37.7522C160 39.0094 158.978 40.031 157.721 40.031C156.466 40.031 155.445 39.0094 155.445 37.7522C155.445 36.4949 156.466 35.4756 157.721 35.4756ZM157.721 39.4741C158.675 39.4741 159.443 38.7062 159.443 37.7525C159.443 36.8011 158.675 36.0332 157.721 36.0332C156.767 36.0332 156 36.8011 156 37.7525C156 38.7062 156.767 39.4741 157.721 39.4741ZM157.363 38.7307C157.363 38.9029 157.3 39.0275 157.085 39.0275C156.867 39.0275 156.806 38.9301 156.806 38.7307V36.8166C156.806 36.6762 156.856 36.5584 157.091 36.5584H157.789C158.292 36.5584 158.711 36.7056 158.711 37.2832C158.711 37.7204 158.489 37.9447 158.093 37.9628L158.532 38.6809C158.557 38.7307 158.568 38.7738 158.568 38.8123C158.568 38.9459 158.482 39.0275 158.278 39.0275C158.081 39.0275 158.018 38.8802 157.939 38.7307L157.549 37.9991H157.363V38.7307ZM157.825 37.5551C158.031 37.5551 158.156 37.5052 158.156 37.2832C158.156 37.059 158.031 37.0046 157.825 37.0046H157.363V37.5551H157.825Z" fill="#E50012"/>
<path fill-rule="evenodd" clip-rule="evenodd" d="M96.6296 53.3912V37.5368C96.7905 35.7835 98.7023 35.8243 98.6525 35.8243C99.3411 35.8379 100.003 35.8719 100.757 36.8346C102.229 38.7102 103.502 40.4341 104.943 42.3799C107.544 45.9001 109.809 48.9287 112.328 52.5508C112.692 53.0764 112.504 53.6834 112.314 54.2022C111.999 55.0562 111.084 55.4956 110.244 55.5455C109.908 55.5704 109.444 55.4888 109.136 55.1966C108.275 54.3653 107.356 52.8906 106.418 51.6696C106.411 51.6696 101.06 51.6357 101.051 51.6832C101.031 51.869 100.995 53.1217 100.836 53.9417C100.585 55.217 99.4952 55.4299 98.9243 55.5319C98.8382 55.55 99.0399 55.5205 98.9243 55.5296C98.1247 55.584 96.8154 55.1989 96.6296 53.4003M103.092 47.3951C103.305 47.3861 103.26 47.1686 103.188 47.0712C102.449 46.079 101.817 45.182 101.051 44.174C101.031 45.1661 101.002 46.3871 101.038 47.4133C101.038 47.4472 101.951 47.4133 101.976 47.411C102.177 47.3815 102.698 47.4201 103.092 47.3951Z" fill="#E50012"/>
<path fill-rule="evenodd" clip-rule="evenodd" d="M1.69742 37.764C2.92518 36.7537 3.54359 36.3573 5.49849 36.0968C7.15211 35.8793 8.60187 36.5725 8.81253 36.645C11.413 37.5171 13.1709 40.5118 12.822 43.4747C12.6159 45.237 11.5716 46.8295 10.2713 47.9757C11.5263 50.7552 13.8708 52.5651 13.4993 53.9401C13.2433 54.8915 12.9783 55.1384 12.1424 55.5031C11.6033 55.7342 10.8286 55.673 10.3823 55.2924C8.20318 53.4395 7.05471 50.762 5.2176 48.8433C4.76455 48.3744 4.56295 48.5828 4.56295 48.8388C4.56748 51.0882 4.58786 52.7554 4.46781 53.854C4.39758 54.5109 3.78144 55.2698 3.35331 55.4804C2.18218 56.0671 0.594248 55.3581 0.390376 54.042C0.349602 53.8042 0.0234075 52.7893 0.00302032 48.1479C-0.0037754 45.8509 0.00302032 45.348 0.00302032 41.701C0.00302032 40.2127 0.70751 38.575 1.69742 37.764ZM6.38645 44.684C7.63686 44.684 8.64716 43.753 8.64716 42.5977C8.64716 41.4424 7.63686 40.5069 6.38645 40.5069C5.1383 40.5069 4.12347 41.4424 4.12347 42.5977C4.12347 43.753 5.1383 44.684 6.38645 44.684Z" fill="#E50012"/>
</svg>
