<svg width="108" height="24" viewBox="0 0 108 24" fill="none" xmlns="http://www.w3.org/2000/svg">
<g clip-path="url(#clip0_661_1136)">
<path d="M33.5617 3.75353C33.1617 2.27645 32.033 1.12606 30.5304 0.72464C27.8765 0 17.1304 0 17.1304 0C17.1304 0 6.41044 0 3.75652 0.726377C2.27826 1.12606 1.12696 2.27818 0.70087 3.75353C0 6.40707 0 11.987 0 11.987C0 11.987 0 17.5669 0.70087 20.2447C1.12696 21.6957 2.27826 22.8722 3.75652 23.2736C6.41217 24 17.1304 24 17.1304 24C17.1304 24 27.8748 24 30.5304 23.2736C32.033 22.8739 33.16 21.6975 33.5617 20.2447C34.2887 17.5669 34.2887 11.987 34.2887 11.987C34.2887 11.987 34.2887 6.40707 33.5617 3.75353ZM13.7252 17.1429V6.85714L22.6157 11.987L13.7252 17.1429Z" fill="white"/>
<path d="M41.5844 22.5225V15.9538L37.614 1.50098H41.0575L42.4853 7.90804C42.8105 9.38513 43.1497 11.5 43.2992 12.2628H43.3236C43.4731 11.5243 43.8001 9.40946 44.1375 7.93411L45.6158 1.50271H49.0592L45.0401 15.9555V22.5242H41.5844V22.5225Z" fill="white"/>
<path d="M57.4625 14.215V15.4419C57.4625 20.8967 56.2608 22.7491 52.6781 22.7491C49.0955 22.7491 47.8938 20.848 47.8938 15.4419V14.215C47.8938 8.63514 49.3216 6.85742 52.7529 6.85742C56.1842 6.85742 57.4608 8.70986 57.4608 14.215H57.4625ZM53.9564 13.0386C53.9564 10.0862 53.6816 9.23466 52.7042 9.23466C51.7268 9.23466 51.4016 10.0862 51.4016 13.0386V16.5679C51.4016 19.6212 51.7025 20.3962 52.6538 20.3962C53.6799 20.3962 53.9564 19.6212 53.9564 16.5679V13.0386Z" fill="white"/>
<path d="M58.9148 18.6951V7.1582H62.3705V18.3319C62.3705 19.6839 62.6713 20.2834 63.3844 20.2834C63.9235 20.2834 64.4487 20.0453 64.8244 19.0444V7.1582H68.28V22.499H65.3496L65.1496 20.4346H65.1374C64.7113 21.8978 63.8731 22.7996 62.1322 22.7996C59.8279 22.7996 58.9131 21.3226 58.9131 18.6951H58.9148Z" fill="white"/>
<path d="M70.7097 22.4982V4.45341H67.2905V1.50098H77.5844V4.45341H74.1653V22.4964H70.7097V22.4982Z" fill="white"/>
<path d="M76.6331 18.6951V7.1582H80.0887V18.3319C80.0887 19.6839 80.3896 20.2834 81.1027 20.2834C81.6418 20.2834 82.167 20.0453 82.5427 19.0444V7.1582H85.9983V22.499H83.0679L82.8679 20.4346H82.8557C82.4296 21.8978 81.5913 22.7996 79.8505 22.7996C77.5461 22.7996 76.6313 21.3226 76.6313 18.6951H76.6331Z" fill="white"/>
<path d="M97.5077 13.6397V15.692C97.5077 20.6463 96.4555 22.7247 94.1268 22.7247C92.7112 22.7247 91.6468 22.0991 91.0955 21.0478H91.0834L90.8573 22.4988H87.8521V0.726562H91.1825V5.13175C91.1825 6.28213 91.2068 7.43426 91.1077 8.81055H91.146C91.7216 7.66017 92.7112 6.85907 94.2642 6.85907C96.4938 6.85907 97.5077 8.31008 97.5077 13.6415V13.6397ZM93.9755 13.6397C93.9755 10.0861 93.6747 9.31102 92.7112 9.31102C92.0608 9.31102 91.4329 9.88622 91.1842 10.9879V19.4595C91.4851 20.0468 92.0103 20.2971 92.5616 20.2971C93.6016 20.2971 93.9773 19.1953 93.9773 15.8675V13.6397H93.9755Z" fill="white"/>
<path d="M108 15.9283H102.276V16.7659C102.276 19.4681 102.339 20.3943 103.454 20.3943C104.569 20.3943 104.807 19.5428 104.831 17.7912L107.875 17.9285C108.101 21.2702 106.372 22.7455 103.442 22.7455C99.8852 22.7455 98.833 20.4187 98.833 16.189V13.5111C98.833 9.05728 100.01 6.87988 103.541 6.87988C107.071 6.87988 107.998 8.73232 107.998 13.3617V15.9266L108 15.9283ZM102.278 12.8386V14.0029H104.556V12.8386C104.556 10.0113 104.443 9.2102 103.405 9.2102C102.367 9.2102 102.278 10.0356 102.278 12.8386Z" fill="white"/>
</g>
<defs>
<clipPath id="clip0_661_1136">
<rect width="108" height="24" fill="white"/>
</clipPath>
</defs>
</svg>
