<svg width="24" height="24" viewBox="0 0 24 24" fill="none" xmlns="http://www.w3.org/2000/svg">
<path fill-rule="evenodd" clip-rule="evenodd" d="M11.9761 0.00126314C8.71844 0.00757887 8.30981 0.022105 7.03025 0.0833675V0.0833675C5.75321 0.143367 4.88101 0.348628 4.11933 0.64673V0.64673C3.3305 0.954306 2.66103 1.36609 1.99599 2.03429V2.03429C1.32968 2.7025 0.921049 3.3726 0.616 4.16206V4.16206C0.320424 4.92626 0.120216 5.7991 0.0640059 7.07677V7.07677C0.00779593 8.35633 -0.00483551 8.76496 0.00148021 12.0232V12.0232C0.00716436 15.2809 0.0216905 15.6901 0.082953 16.9703V16.9703C0.144216 18.2474 0.347582 19.1183 0.646316 19.8813V19.8813C0.953891 20.6701 1.36568 21.3383 2.03451 22.004V22.004C2.70208 22.6697 3.37218 23.0783 4.16228 23.384V23.384C4.92585 23.6789 5.79868 23.8804 7.07635 23.936V23.936C8.35529 23.9928 8.76455 24.0048 12.0216 23.9985V23.9985C15.2811 23.9928 15.6897 23.9776 16.9699 23.917V23.917C18.2463 23.8564 19.1179 23.6517 19.8808 23.3536V23.3536C20.6697 23.0454 21.3379 22.6343 22.0036 21.9654V21.9654C22.6686 21.2979 23.0779 20.6278 23.3836 19.8377V19.8377C23.6785 19.0741 23.8793 18.2019 23.9355 16.9249V16.9249C23.9911 15.644 24.0044 15.2354 23.9981 11.9778V11.9778C23.9918 8.71885 23.9772 8.31086 23.9166 7.03129V7.03129C23.856 5.75362 23.6513 4.88205 23.3532 4.11911V4.11911C23.045 3.33028 22.6332 2.66208 21.9657 1.9964V1.9964C21.2981 1.33135 20.6267 0.921464 19.8373 0.616415V0.616415C19.0737 0.32147 18.2009 0.119999 16.9238 0.0644204V0.0644204C15.8375 0.0164209 15.379 0 13.2714 0V0C12.8963 0 12.4687 0.000631572 11.9761 0.00126314V0.00126314ZM7.17011 21.7758C6.00044 21.7246 5.36508 21.5301 4.94129 21.3671V21.3671C4.38109 21.1505 3.98067 20.8903 3.55941 20.4722V20.4722C3.13941 20.0528 2.87857 19.6537 2.66005 19.0941V19.0941C2.49521 18.6709 2.29753 18.0368 2.24258 16.8659V16.8659C2.18258 15.6015 2.16995 15.2226 2.16363 12.018V12.018C2.15732 8.81463 2.16932 8.43569 2.22427 7.16875V7.16875C2.27416 6.00034 2.46995 5.36435 2.63226 4.94056V4.94056C2.84952 4.37973 3.1091 3.97994 3.52783 3.55868V3.55868C3.9472 3.13806 4.34635 2.87785 4.90529 2.65933V2.65933C5.32908 2.49385 5.96317 2.29743 7.13285 2.24186V2.24186C8.39852 2.18249 8.77746 2.16923 11.9808 2.16291V2.16291C15.1848 2.15659 15.5643 2.16796 16.8306 2.22354V2.22354C17.9997 2.27407 18.6357 2.46796 19.0582 2.63217V2.63217C19.619 2.8488 20.0188 3.10774 20.4394 3.52711V3.52711C20.8601 3.94647 21.1215 4.34436 21.3401 4.90583V4.90583C21.5055 5.32709 21.7013 5.96308 21.7569 7.13212V7.13212C21.8169 8.39716 21.8308 8.77737 21.8371 11.9801V11.9801C21.8434 15.184 21.8314 15.5636 21.7759 16.8293V16.8293C21.7247 17.999 21.5308 18.6343 21.3672 19.0587V19.0587C21.15 19.6183 20.891 20.0187 20.4723 20.44V20.44C20.0529 20.8593 19.6544 21.1208 19.0936 21.34V21.34C18.6717 21.5048 18.0363 21.7019 16.8673 21.7568V21.7568C15.6022 21.8168 15.2227 21.8301 12.0187 21.8358V21.8358C11.5204 21.837 11.0903 21.837 10.7145 21.837V21.837C8.67578 21.837 8.23873 21.8219 7.17011 21.7758V21.7758ZM18.389 4.14334C17.5945 4.14524 16.9509 4.79134 16.9522 5.58585V5.58585C16.9541 6.38037 17.6002 7.02394 18.3947 7.02268V7.02268C19.1899 7.02142 19.8334 6.37532 19.8322 5.5808V5.5808C19.8309 4.78628 19.1854 4.14334 18.3915 4.14334V4.14334C18.3903 4.14334 18.3897 4.14334 18.389 4.14334V4.14334ZM11.9879 5.83798C8.58558 5.84366 5.83193 8.60868 5.83824 12.011V12.011C5.84519 15.4145 8.60958 18.1669 12.0112 18.1606V18.1606C15.4148 18.1536 18.1684 15.3905 18.1621 11.9876V11.9876C18.1552 8.58974 15.3977 5.83798 12.0005 5.83798V5.83798C11.9961 5.83798 11.9923 5.83798 11.9879 5.83798V5.83798ZM7.99927 12.0054C7.99548 9.79677 9.78283 8.00247 11.9914 7.99805V7.99805C14.2001 7.99426 15.9943 9.78161 15.9994 11.9902V11.9902C16.0032 14.1995 14.2152 15.9938 12.0066 15.9975V15.9975C12.0041 15.9975 12.0009 15.9975 11.9984 15.9975V15.9975C9.79357 15.9975 8.00306 14.2115 7.99927 12.0054V12.0054Z" fill="white"/>
<mask id="mask0_661_1114" style="mask-type:luminance" maskUnits="userSpaceOnUse" x="0" y="0" width="24" height="24">
<path fill-rule="evenodd" clip-rule="evenodd" d="M11.9761 0.00126314C8.71844 0.00757887 8.30981 0.022105 7.03025 0.0833675V0.0833675C5.75321 0.143367 4.88101 0.348628 4.11933 0.64673V0.64673C3.3305 0.954306 2.66103 1.36609 1.99599 2.03429V2.03429C1.32968 2.7025 0.921049 3.3726 0.616 4.16206V4.16206C0.320424 4.92626 0.120216 5.7991 0.0640059 7.07677V7.07677C0.00779593 8.35633 -0.00483551 8.76496 0.00148021 12.0232V12.0232C0.00716436 15.2809 0.0216905 15.6901 0.082953 16.9703V16.9703C0.144216 18.2474 0.347582 19.1183 0.646316 19.8813V19.8813C0.953891 20.6701 1.36568 21.3383 2.03451 22.004V22.004C2.70208 22.6697 3.37218 23.0783 4.16228 23.384V23.384C4.92585 23.6789 5.79868 23.8804 7.07635 23.936V23.936C8.35529 23.9928 8.76455 24.0048 12.0216 23.9985V23.9985C15.2811 23.9928 15.6897 23.9776 16.9699 23.917V23.917C18.2463 23.8564 19.1179 23.6517 19.8808 23.3536V23.3536C20.6697 23.0454 21.3379 22.6343 22.0036 21.9654V21.9654C22.6686 21.2979 23.0779 20.6278 23.3836 19.8377V19.8377C23.6785 19.0741 23.8793 18.2019 23.9355 16.9249V16.9249C23.9911 15.644 24.0044 15.2354 23.9981 11.9778V11.9778C23.9918 8.71885 23.9772 8.31086 23.9166 7.03129V7.03129C23.856 5.75362 23.6513 4.88205 23.3532 4.11911V4.11911C23.045 3.33028 22.6332 2.66208 21.9657 1.9964V1.9964C21.2981 1.33135 20.6267 0.921464 19.8373 0.616415V0.616415C19.0737 0.32147 18.2009 0.119999 16.9238 0.0644204V0.0644204C15.8375 0.0164209 15.379 0 13.2714 0V0C12.8963 0 12.4687 0.000631572 11.9761 0.00126314V0.00126314ZM7.17011 21.7758C6.00044 21.7246 5.36508 21.5301 4.94129 21.3671V21.3671C4.38109 21.1505 3.98067 20.8903 3.55941 20.4722V20.4722C3.13941 20.0528 2.87857 19.6537 2.66005 19.0941V19.0941C2.49521 18.6709 2.29753 18.0368 2.24258 16.8659V16.8659C2.18258 15.6015 2.16995 15.2226 2.16363 12.018V12.018C2.15732 8.81463 2.16932 8.43569 2.22427 7.16875V7.16875C2.27416 6.00034 2.46995 5.36435 2.63226 4.94056V4.94056C2.84952 4.37973 3.1091 3.97994 3.52783 3.55868V3.55868C3.9472 3.13806 4.34635 2.87785 4.90529 2.65933V2.65933C5.32908 2.49385 5.96317 2.29743 7.13285 2.24186V2.24186C8.39852 2.18249 8.77746 2.16923 11.9808 2.16291V2.16291C15.1848 2.15659 15.5643 2.16796 16.8306 2.22354V2.22354C17.9997 2.27407 18.6357 2.46796 19.0582 2.63217V2.63217C19.619 2.8488 20.0188 3.10774 20.4394 3.52711V3.52711C20.8601 3.94647 21.1215 4.34436 21.3401 4.90583V4.90583C21.5055 5.32709 21.7013 5.96308 21.7569 7.13212V7.13212C21.8169 8.39716 21.8308 8.77737 21.8371 11.9801V11.9801C21.8434 15.184 21.8314 15.5636 21.7759 16.8293V16.8293C21.7247 17.999 21.5308 18.6343 21.3672 19.0587V19.0587C21.15 19.6183 20.891 20.0187 20.4723 20.44V20.44C20.0529 20.8593 19.6544 21.1208 19.0936 21.34V21.34C18.6717 21.5048 18.0363 21.7019 16.8673 21.7568V21.7568C15.6022 21.8168 15.2227 21.8301 12.0187 21.8358V21.8358C11.5204 21.837 11.0903 21.837 10.7145 21.837V21.837C8.67578 21.837 8.23873 21.8219 7.17011 21.7758V21.7758ZM18.389 4.14334C17.5945 4.14524 16.9509 4.79134 16.9522 5.58585V5.58585C16.9541 6.38037 17.6002 7.02394 18.3947 7.02268V7.02268C19.1899 7.02142 19.8334 6.37532 19.8322 5.5808V5.5808C19.8309 4.78628 19.1854 4.14334 18.3915 4.14334V4.14334C18.3903 4.14334 18.3897 4.14334 18.389 4.14334V4.14334ZM11.9879 5.83798C8.58558 5.84366 5.83193 8.60868 5.83824 12.011V12.011C5.84519 15.4145 8.60958 18.1669 12.0112 18.1606V18.1606C15.4148 18.1536 18.1684 15.3905 18.1621 11.9876V11.9876C18.1552 8.58974 15.3977 5.83798 12.0005 5.83798V5.83798C11.9961 5.83798 11.9923 5.83798 11.9879 5.83798V5.83798ZM7.99927 12.0054C7.99548 9.79677 9.78283 8.00247 11.9914 7.99805V7.99805C14.2001 7.99426 15.9943 9.78161 15.9994 11.9902V11.9902C16.0032 14.1995 14.2152 15.9938 12.0066 15.9975V15.9975C12.0041 15.9975 12.0009 15.9975 11.9984 15.9975V15.9975C9.79357 15.9975 8.00306 14.2115 7.99927 12.0054V12.0054Z" fill="white"/>
</mask>
<g mask="url(#mask0_661_1114)">
</g>
</svg>
